<?xml version="1.0" encoding="UTF-8"?>
<svg xmlns="http://www.w3.org/2000/svg" width="512" height="512" viewBox="0 0 512 512"
     color="#d9a441" role="img" aria-label="sword">
    <!-- sword: paste these children back into DEVICE_MARKUP.sword in lib/hud.js. -->
  <g id="device" fill="currentColor">
    <path d="M458.6 67.0491L449.073 127.389C446.691 140.092 440.339 152.001 430.812 161.529L261.889 321.952L232.282 291.539L375.469 142.764C375.469 142.764 379.462 137.109 377.058 134.874C374.654 132.639 368.717 137.109 368.717 137.109L219.822 279.734L188.588 248.405L349.829 80.5462C359.357 71.0188 371.266 64.6673 383.969 62.2854L444.309 52.758C448.279 51.9641 452.248 53.552 455.424 55.9338C458.6 59.1096 459.394 63.0794 458.6 67.0491ZM119.584 233.778C124.348 229.014 133.081 229.014 137.845 233.778L277.58 373.513C282.344 378.277 282.344 387.01 277.58 391.774L264.877 404.477C260.113 408.447 253.762 409.241 248.998 406.065L185.482 363.986C183.1 362.398 179.924 362.398 177.543 364.779L145.785 395.743C144.197 397.331 143.403 400.507 144.197 402.095L153.724 429.089C155.312 433.853 153.724 438.617 150.548 442.586L137.845 455.289C133.081 460.053 124.348 460.053 119.584 455.289L56.0686 391.774C51.3049 387.01 51.3049 378.277 56.0686 373.513L68.7717 360.81C72.7415 357.634 77.5051 356.046 82.2688 357.634L109.263 367.161C110.851 367.955 114.027 367.161 115.615 365.573L146.579 333.815C148.96 331.434 148.96 328.258 147.373 325.876L105.293 262.36C102.118 257.597 102.911 251.245 106.881 246.481L119.584 233.778Z" fill="currentColor"/>
  </g>
</svg>
