<svg xmlns="http://www.w3.org/2000/svg" width="48" height="48" viewBox="0 0 48 48" aria-hidden="true" focusable="false"><defs><linearGradient id="dsh-sh-plate" x1="0.12" y1="0" x2="0.78" y2="1"><stop offset="0" stop-color="#fdf1cd"/><stop offset="0.18" stop-color="#d8b673"/><stop offset="0.46" stop-color="#9a7a3e"/><stop offset="0.72" stop-color="#5f4a20"/><stop offset="1" stop-color="#2b2009"/></linearGradient><radialGradient id="dsh-sh-recess" cx="0.5" cy="0.4" r="0.66"><stop offset="0.5" stop-color="rgba(0,0,0,0)"/><stop offset="1" stop-color="rgba(0,0,0,0.5)"/></radialGradient><linearGradient id="dsh-sh-device" x1="0.18" y1="0.05" x2="0.82" y2="1"><stop offset="0" stop-color="#d8b673"/><stop offset="0.3" stop-color="#9a7a3e"/><stop offset="0.62" stop-color="#5f4a20"/><stop offset="1" stop-color="#2b2009"/></linearGradient><clipPath id="dsh-sh-clip"><circle cx="24" cy="24" r="18.6"/></clipPath></defs><circle cx="24" cy="24" r="22.6" fill="url(#dsh-sh-plate)"/><circle cx="24" cy="24" r="22.6" fill="none" stroke="rgba(24,18,6,0.85)" stroke-width="0.8"/><circle cx="24" cy="24" r="21.1" fill="none" stroke="rgba(255,246,222,0.34)" stroke-width="1.1" stroke-dasharray="0.9 1.6"/><circle cx="24" cy="24" r="19.950000000000003" fill="none" stroke="rgba(28,20,8,0.42)" stroke-width="1.6"/><circle cx="24" cy="24" r="18.75" fill="none" stroke="rgba(20,14,4,0.5)" stroke-width="0.9"/><circle cx="24" cy="24" r="18.6" fill="#efe6cf"/><g clip-path="url(#dsh-sh-clip)"><circle cx="24" cy="24" r="18.6" fill="url(#dsh-sh-recess)"/><g fill="none" stroke="rgba(34,22,6,0.46)" stroke-linecap="round" stroke-linejoin="round"><path stroke-width="1.3" d="M5 32.5L6.2 31.4L7.4 30.9"/><path stroke-width="0.94" d="M7.4 30.9L9.4 29.8L11.5 30.1"/><path stroke-width="0.59" d="M11.5 30.1L12.8 28.5"/><path stroke-width="0.8" d="M11.5 30.1L12.6 29.3"/><path stroke-width="0.58" d="M12.6 29.3L13.7 28.7"/><path stroke-width="1.15" d="M12.5 41.1L13.6 40L14.3 38.8L15.7 37.8L15.8 35.5"/><path stroke-width="0.83" d="M15.8 35.5L17.2 34.2L18.6 33.2L19.8 31.7"/><path stroke-width="0.52" d="M19.8 31.7L21.2 30.2L22.6 28.9"/><path stroke-width="0.9" d="M40.5 37.9L39 36.8L37.6 35.4L36.6 33.6"/><path stroke-width="0.65" d="M36.6 33.6L35.6 31.6L34.3 29.4"/><path stroke-width="0.41" d="M34.3 29.4L32.9 28.4L31.5 27.8"/><path stroke-width="0.5" d="M36.6 33.6L38.9 25.3"/><path stroke-width="0.36" d="M38.9 25.3L37.6 25"/><path stroke-width="0.62" d="M23.3 2.7L23.7 5.3L22.9 7.6"/><path stroke-width="0.45" d="M22.9 7.6L24.4 9.7"/></g><g fill="rgba(40,26,8,0.44)"><circle cx="18.4" cy="9.2" r="0.5"/><circle cx="29.6" cy="7.8" r="0.34"/><circle cx="38.2" cy="17.4" r="0.46"/><circle cx="40.4" cy="28.6" r="0.5"/><circle cx="34.8" cy="39.4" r="0.3"/><circle cx="22.6" cy="40.8" r="0.5"/><circle cx="10.8" cy="36.2" r="0.44"/><circle cx="8.2" cy="21.4" r="0.36"/><circle cx="31.4" cy="20.6" r="0.28"/><circle cx="15.6" cy="29.4" r="0.4"/><circle cx="43.4" cy="24.2" r="0.26"/><circle cx="27.2" cy="43.6" r="0.32"/><circle cx="12.6" cy="14.8" r="0.3"/><circle cx="35.8" cy="8.4" r="0.26"/><circle cx="5.6" cy="27.6" r="0.3"/><circle cx="20.2" cy="5.2" r="0.24"/><circle cx="39.2" cy="33.4" r="0.22"/><circle cx="14.2" cy="41.2" r="0.24"/><circle cx="30.4" cy="14.4" r="0.2"/><circle cx="9.4" cy="31.8" r="0.22"/></g></g><circle cx="24" cy="24" r="18.6" fill="none" stroke="rgba(255,245,220,0.5)" stroke-width="0.9"/><g><g transform="translate(8,8) scale(0.0625)"><path fill-rule="evenodd" clip-rule="evenodd" d="M32.4 315.2C-1.97882 215.09 65.3247 114.942 205.044 153.389C259.611 168.405 310.779 237.698 353.019 233.577C395.26 229.456 407.568 206.481 410.021 189.681C412.475 172.881 372.058 165.64 372.058 135.593C379.438 141.919 408.664 140.161 418.797 143.275C428.076 146.126 431.624 151.034 431.624 153.926C431.624 149.803 434.474 146.38 444.275 143.275C453.061 140.112 484.945 143.093 494.147 139.372C491.621 179.316 448.731 171.283 442.522 194.962C433.624 228.899 438.151 251.957 433.624 279.432C429.325 305.52 423.755 320.788 413.021 337.713C404.383 351.334 381.545 369.331 349.075 383.691C316.606 398.051 230.28 409.558 155.6 403.2C80.9203 396.843 47.4704 359.085 32.4 315.2ZM165.2 252.8C160.32 252.8 155.64 254.739 152.189 258.19C148.739 261.64 146.8 266.32 146.8 271.2C146.8 276.08 148.739 280.76 152.189 284.211C155.64 287.662 160.32 289.6 165.2 289.6C170.08 289.6 174.76 287.662 178.211 284.211C181.661 280.76 183.6 276.08 183.6 271.2C183.6 266.32 181.661 261.64 178.211 258.19C174.76 254.739 170.08 252.8 165.2 252.8Z" fill="url(#dsh-sh-device)"/></g></g></svg>
